<svg xmlns="http://www.w3.org/2000/svg" version="1.1" xmlns:xlink="http://www.w3.org/1999/xlink" xmlns:svgjs="http://svgjs.dev/svgjs" width="1000" height="164" viewBox="0 0 1000 164"><g transform="matrix(1,0,0,1,-0.6060433268154952,0.28208273046202237)"><svg viewBox="0 0 396 65" data-background-color="#dbcc8f" preserveAspectRatio="xMidYMid meet" height="164" width="1000" xmlns="http://www.w3.org/2000/svg" xmlns:xlink="http://www.w3.org/1999/xlink"><g id="tight-bounds" transform="matrix(1,0,0,1,0.23999354620195845,-0.11180108219531348)"><svg viewBox="0 0 395.52 65.22360216439061" height="65.22360216439061" width="395.52"><g><svg viewBox="0 0 395.52 65.22360216439061" height="65.22360216439061" width="395.52"><g><svg viewBox="0 0 395.52 65.22360216439061" height="65.22360216439061" width="395.52"><g id="textblocktransform"><svg viewBox="0 0 395.52 65.22360216439061" height="65.22360216439061" width="395.52" id="textblock"><g><svg viewBox="0 0 395.52 65.22360216439061" height="65.22360216439061" width="395.52"><g transform="matrix(1,0,0,1,0,0)"><svg width="395.52" viewBox="-14.449999809265137 -31.25 194.0399932861328 32" height="65.22360216439061" data-palette-color="#111111"><path d="M15.1-16.2L14.2-14.65-6.35-16.85 14.95-16.85 15.1-16.2ZM5.9-0.25L-14.45-2.4 7.15-2.4 5.9-0.25ZM13.75-21.65L14.3-19.4-6.85-21.65 13.75-21.65ZM12.7-12.05L11.45-9.9-8.85-12.05 12.7-12.05ZM13.15-24.2L13.15-24.2-8-26.45 12.6-26.45Q12.75-25.7 13.15-24.2ZM12-29L12-29-9.15-31.25 11.45-31.25Q11.6-30.5 12-29ZM9.95-7.25L8.7-5.1-11.6-7.25 9.95-7.25ZM13-31.25L23.8-31.25 25.55-22.9 26.05-22.9 30.8-31.25 41.1-31.25 31.8-16.15 35.6 0 25.05 0 23.05-9 22.65-9 17.55 0 7.5 0 16.7-15.85 13-31.25ZM50.9-21.65L50.5-19.4 29.3-21.65 50.9-21.65ZM50.05-16.85L49.65-14.6 28.5-16.85 50.05-16.85ZM52.6-31.25L52.2-29 31.05-31.25 52.6-31.25ZM51.35-24.2L30.2-26.45 51.75-26.45 51.35-24.2ZM27.8-12.05L49.2-12.05Q49-10.4 48.95-9.8L48.95-9.8 27.8-12.05ZM27.85-7.25L48.85-7.25Q48.85-6.05 49-5L49-5 27.85-7.25ZM30.15-2.4L49.7-2.4Q50.35-1 51.3-0.15L51.3-0.15 30.15-2.4ZM59.5-7.8L62.9-7.8Q64.65-7.8 65.4-8.28 66.15-8.75 66.45-10.45L66.45-10.45 70.15-31.25 79.65-31.25 76.55-13.7Q75.8-9.45 74.82-6.85 73.85-4.25 72.1-2.45 70.35-0.65 67.77 0.05 65.2 0.75 61.25 0.75L61.25 0.75Q55.2 0.75 52.77-1.07 50.35-2.9 50.35-7.35L50.35-7.35Q50.35-9.8 51.05-13.7L51.05-13.7 54.15-31.25 63.65-31.25 59.5-7.8ZM100.85-4.95L98.9 0 88.9 0 102.05-31.25 116.75-31.25 118.95 0 108.9 0 108.7-4.95 100.85-4.95ZM103.95-12.9L107.95-12.9 107.95-21.65 107.45-21.65 103.95-12.9ZM88.25-2.4L87.3-0.2 66.8-2.4 88.25-2.4ZM90.3-7.25L89.35-5.05 68.85-7.25 90.3-7.25ZM92.3-12.05L91.4-9.85 70.9-12.05 92.3-12.05ZM94.35-16.85L93.4-14.65 72.95-16.85 94.35-16.85ZM96.35-21.65L95.45-19.45 75-21.65 96.35-21.65ZM100.4-31.25L99.5-29.1 79.1-31.25 100.4-31.25ZM98.35-26.45L97.45-24.3 77.05-26.45 98.35-26.45ZM79.1-31.25L99.5-29.1 100.4-31.25 79.1-31.25ZM149.49 0L144.39-11.1Q144.19-11.45 144.19-12.08 144.19-12.7 144.29-13.5L144.29-13.5 143.89-13.5 141.54 0 132.04 0 137.54-31.25 146.49-31.25 151.59-20.15Q151.74-19.8 151.74-19.18 151.74-18.55 151.64-17.75L151.64-17.75 152.04-17.75 154.44-31.25 163.94-31.25 158.44 0 149.49 0ZM130.94-2.4L130.54-0.15 109.34-2.4 130.94-2.4ZM132.64-12.05L132.24-9.8 111.04-12.05 132.64-12.05ZM133.49-16.85L133.09-14.6 111.89-16.85 133.49-16.85ZM134.34-21.65L133.94-19.4 112.74-21.65 134.34-21.65ZM135.14-26.45L134.79-24.2 113.59-26.45 135.14-26.45ZM131.79-7.25L131.39-5 110.19-7.25 131.79-7.25ZM135.99-31.25L135.59-29 114.44-31.25 135.99-31.25ZM156.44-7.25L167.99-7.25Q167.69-6.25 167.54-5L167.54-5 156.44-7.25ZM167.89-0.15L167.89-0.15 156.69-2.4 167.34-2.4Q167.44-0.95 167.89-0.15ZM169.04-4.95Q169.54-7.9 170.82-9.1 172.09-10.3 174.87-10.3 177.64-10.3 178.62-9.55 179.59-8.8 179.59-7.4 179.59-6 179.39-4.95L179.39-4.95Q178.89-2 177.62-0.85 176.34 0.3 173.57 0.3 170.79 0.3 169.82-0.43 168.84-1.15 168.84-2.53 168.84-3.9 169.04-4.95L169.04-4.95Z" opacity="1" transform="matrix(1,0,0,1,0,0)" fill="#111111" class="wordmark-text-0" data-fill-palette-color="primary" id="text-0"></path></svg></g></svg></g></svg></g></svg></g></svg></g><defs></defs></svg><rect width="395.52" height="65.22360216439061" fill="none" stroke="none" visibility="hidden"></rect></g></svg></g></svg>